<svg fill="none" height="120" viewBox="0 0 120 120" width="120" xmlns="http://www.w3.org/2000/svg" xmlns:xlink="http://www.w3.org/1999/xlink"><clipPath id="a"><path d="m0 0h120v120h-120z"/></clipPath><g clip-path="url(#a)" clip-rule="evenodd" fill-rule="evenodd"><path d="m26.8803 15.9107c-8.6045 1.1317-18.14065 7.6218-22.56745 15.3594-2.9131 5.0913-3.965734 8.9975-4.2219867 15.6634-.2124333 5.5147-.1224111 6.4211 1.0388267 10.4683 4.60589 16.0572 18.66551 27.0604 34.59371 27.0733 5.2356.0043 8.875-.6759 13.1904-2.4659l3.457-1.4336 4.8188 4.2138c2.6502 2.3178 8.9174 7.7991 13.9277 12.1811 5.0103 4.3825 9.4642 7.9725 9.8981 7.9785 1.0112.013 8.9756-8.4195 8.9756-9.5041 0-.4496-1.0179-1.7385-2.2625-2.864-1.2441-1.1255-5.9786-5.6062-10.5202-9.9568-4.5421-4.3505-9.4633-9.0003-10.9365-10.3325l-2.6778-2.4225 1.2518-2.8169c2.7811-6.2567 3.3475-9.1751 3.1122-16.0353-.1753-5.1032-.4544-7.0398-1.4585-10.1249-3.1584-9.7009-10.4183-17.7305-20.1368-22.2711-6.273-2.9303-11.8796-3.7105-19.4824-2.7102z" fill="#3080ff"/><path d="m28.5476 20.4596c-.6549.1191-2.1553.4459-3.3342.7264-1.1788.2801-2.6792.6021-3.3341.7149-2.1405.3692-4.0015 1.2585-6.9265 3.309-11.8505 8.3082-14.66309 25.8811-6.37773 39.8454 8.10813 13.6658 24.60893 18.7527 38.96333 12.013 4.8336-2.2692 9.7443-7.1837 12.1092-12.1192 2.2958-4.7902 2.8273-7.3651 2.8021-13.5747-.0172-4.1615-.2553-5.9758-1.1574-8.8193-3.3118-10.4355-10.9756-18.2131-20.837-21.1467-2.6435-.7863-9.7072-1.3493-11.9077-.9488zm10.2201 2.5345c7.2256 2.5701 13.9791 9.0336 17.5719 16.8169 1.3913 3.0136 2.6921 8.9441 2.6835 12.235-.0281 10.6068-5.6904 20.4912-14.1287 24.6612-3.0045 1.4852-4.1462 1.7838-7.4885 1.9596-4.9054.2572-7.9976-.3868-12.3616-2.5754-10.4797-5.2561-16.93553-15.6724-17.0327-27.4834-.04287-5.2189.55585-7.9358 2.8021-12.7136 2.0048-4.2644 7.5152-10.0539 11.3037-11.8763 1.3099-.6301 2.4887-1.2989 2.6197-1.486.8879-1.2689 10.0087-.9689 14.0306.462zm-.574 9.1217c-1.0459.3187-2.6163 1.7271-4.8469 4.3463-3.8657 4.5388-4.2662 5.4885-2.5873 6.1268 1.9067.7249 2.3106.5596 3.8491-1.5742 4.2696-5.9215 8.3744-8.6926 9.9453-6.7136 1.1831 1.4918 1.6699 3.127 1.3555 4.5578-.3639 1.6571-6.5468 10.0801-8.7764 11.9558-1.1179.9407-1.8957 1.2532-2.5906 1.0407-.5463-.1672-1.9329-.4282-3.0808-.5806-1.6551-.2196-2.0414-.1391-1.8685.3877.5749 1.7509 8.4954 2.6521 11.1246 1.2661 1.7838-.9408 7.4652-6.7131 9.3547-9.5048 1.1136-1.6451 1.3436-2.4167 1.1626-3.8942-.5982-4.8846-7.8357-8.9989-13.0413-7.4138zm-14.171 13.7172c-1.7795 1.1022-4.7822 4.3306-6.8822 7.399-1.4003 2.0462-1.6018 2.7225-1.6342 5.4894-.0295 2.5301.1719 3.448 1.0155 4.633 1.4503 2.0367 3.7723 3.0236 7.1146 3.0236 3.8495 0 6.2915-1.3584 10.0605-5.5966l3.0708-3.4532h-2.3573c-2.3158 0-2.411.0591-5.4199 3.3775-1.6847 1.8576-3.4646 3.5942-3.9557 3.859-2.1267 1.147-4.7921-2.3034-4.4468-5.7561.2348-2.3454 1.9343-5.1908 5.3923-9.0275l2.7235-3.0217 2.5416.3172c1.3979.1748 2.5416.1848 2.5416.0219 0-.1624-.9107-.7092-2.0243-1.2145-2.5964-1.1784-5.8848-1.2003-7.74-.051zm32.8728 29.5863c-2.5297 2.8769-4.4816 5.4213-4.3378 5.6542.1439.2329.9446.5597 1.7795.7269 1.4256.2853 1.7462.059 5.287-3.7324 2.0729-2.22 4.2187-4.6082 4.7688-5.307.9707-1.2346.9741-1.2893.1091-1.9219-1.909-1.3956-2.8512-.8283-7.6066 4.5802zm24.6989 14.9098c-2.9746 1.6971-8.274 7.2632-8.274 8.6907 0 .3063 3.0584 1.6522 3.7543 1.6522.2477 0 1.1827-.6967 2.0777-1.5479.8945-.8511 2.2524-2.0995 3.0178-2.773 1.6319-1.4375 4.0105-4.2806 4.0105-4.7936 0-.5458-2.0228-1.8428-2.845-1.8238-.4.0096-1.1836.2773-1.7413.5954z" fill="#1e1919"/><path d="m73.3713 21.241c.1795 7.7738.1095 7.5861 2.7478 7.4151l2.2024-.1428-.1505-5.4485c-.0829-2.9965-.3582-5.8367-.6121-6.3111-.3286-.614-1.0159-.8626-2.3862-.8626h-1.9248zm-10.3283 4.2358c-.1924.3115 1.2427 2.111 3.4251 4.2949 3.558 3.5604 3.8443 3.7437 5.4233 3.478 3.1203-.5259 3.1088-1.1765-.0653-3.7862-1.5913-1.3084-3.4604-2.8612-4.1529-3.4504-1.3399-1.1393-4.0624-1.4551-4.6302-.5363zm20.5179 2.0629c-3.2389 2.1805-6.2568 4.8602-5.8938 5.2332.1638.1681 1.0212.4177 1.9052.5544 1.3608.21 2.2272-.1567 5.6557-2.3958 2.2267-1.4542 4.2096-2.6469 4.4058-2.6502.6773-.0114.3553-.9264-.4763-1.3522-2.172-1.1132-3.2036-1.0008-5.5966.6106zm-3.7681 9.2565c-.7978.313-.6611.5287 1.1113 1.7528 1.1117.7674 2.6515 1.901 3.4213 2.5183 1.1121.8921 1.7366 1.0598 3.0398.8149 3.0469-.5715 2.6954-1.305-1.7962-3.7504-3.2708-1.7809-4.1324-1.98-5.7762-1.3356zm-6.0553.5221c-.7706.4615-.8002 1.4294-.2172 7.1512.0934.9169.1939 2.2563.2229 2.977.0424 1.0355.2839 1.3098 1.1532 1.3098.6049 0 1.4913-.2863 1.9695-.6363.7978-.583.835-1.0679.4482-5.8348-.411-5.0693-.451-5.2013-1.6123-5.3142-.6549-.0638-1.5389.0924-1.9643.3473zm-66.46387 44.6052c-.72494.2962-.23863 1.9614 1.68804 5.7776 1.40513 2.7821 1.59373 2.9626 2.80593 2.6744 2.6359-.6268 2.6449-.7177.4877-4.8526-1.7466-3.3484-2.2048-3.8962-3.23124-3.8638-.65778.0205-1.44559.1396-1.75043.2644zm14.36737 3.3403c-2.5392 1.3261-4.5183 2.775-4.5216 3.3094-.0019.2867.4153.9002.9269 1.3637 1.0031.9078.9845.9135 7.096-2.3087l1.5961-.8416-1.0836-1.1536c-1.2527-1.3332-2.031-1.4051-4.0138-.3692zm-15.24187 9.5085c-1.30984.8884-2.9693 2.0077-3.68709 2.4883l-1.30603.8735 1.06788.9607c1.86093 1.6752 2.1872 1.6792 4.25532.0567 4.27919-3.358 4.70019-3.8224 4.11099-4.5325-1.2541-1.5114-2.02428-1.4847-4.44107.1533zm8.15917.3196c-.7845.574-.7516.816.5492 4.0534.7606 1.8937 1.5008 3.5607 1.6442 3.7047.1438.143 1.0507-.069 2.0152-.472 2.0329-.849 2.0081-1.286-.3101-5.3956-1.4551-2.5787-2.3577-3.0169-3.8985-1.8905z" fill="#f7f5f2"/></g></svg>