<svg width="301" height="211" viewBox="0 0 301 211" fill="none" xmlns="http://www.w3.org/2000/svg">
<path d="M70.4957 205.253C70.4957 206.256 70.333 207.138 69.994 207.883C69.6551 208.629 69.1535 209.212 68.4756 209.632C67.7977 210.053 66.93 210.256 65.8861 210.256C64.8422 210.256 63.9745 210.053 63.2831 209.632C62.6052 209.212 62.0899 208.629 61.7646 207.883C61.4392 207.138 61.2629 206.256 61.2629 205.253C61.2629 204.25 61.4256 203.382 61.7646 202.636C62.0899 201.891 62.6052 201.321 63.2831 200.915C63.9609 200.508 64.8286 200.291 65.8861 200.291C66.9436 200.291 67.7977 200.494 68.4756 200.915C69.1535 201.335 69.6551 201.904 69.9805 202.65C70.3059 203.396 70.4821 204.277 70.4821 205.28L70.4957 205.253ZM63.4322 205.253C63.4322 206.27 63.622 207.056 64.0151 207.653C64.4083 208.236 65.032 208.534 65.8861 208.534C66.7402 208.534 67.391 208.249 67.7706 207.653C68.1502 207.056 68.34 206.27 68.34 205.253C68.34 204.236 68.1502 203.45 67.7706 202.853C67.391 202.27 66.7673 201.972 65.8997 201.972C65.032 201.972 64.4083 202.27 64.0151 202.853C63.622 203.436 63.4322 204.236 63.4322 205.253Z" fill="black"/>
<path d="M77.9117 210.107H75.8916V200.427H81.4367V202.108H77.9117V204.602H81.1926V206.284H77.9117V210.107Z" fill="black"/>
<path d="M88.7442 210.107H86.7241V200.427H92.2692V202.108H88.7442V204.602H92.0252V206.284H88.7442V210.107Z" fill="black"/>
<path d="M101.176 210.107H96.7703V208.941L97.9498 208.398V202.135L96.7703 201.593V200.427H101.176V201.593L99.997 202.135V208.398L101.176 208.941V210.107Z" fill="black"/>
<path d="M110.328 201.999C109.542 201.999 108.945 202.298 108.525 202.881C108.105 203.464 107.901 204.277 107.901 205.294C107.901 206.311 108.091 207.124 108.484 207.68C108.864 208.249 109.487 208.52 110.328 208.52C110.721 208.52 111.114 208.48 111.507 208.385C111.901 208.29 112.334 208.168 112.795 208.005V209.727C112.375 209.903 111.955 210.025 111.535 210.107C111.114 210.188 110.653 210.229 110.138 210.229C109.135 210.229 108.308 210.025 107.671 209.605C107.033 209.185 106.559 208.615 106.247 207.87C105.935 207.124 105.786 206.256 105.786 205.253C105.786 204.25 105.962 203.409 106.315 202.664C106.667 201.918 107.183 201.321 107.86 200.901C108.538 200.481 109.352 200.264 110.328 200.264C110.802 200.264 111.291 200.332 111.779 200.454C112.267 200.576 112.728 200.738 113.161 200.942L112.497 202.609C112.131 202.433 111.765 202.284 111.399 202.162C111.033 202.04 110.68 201.972 110.328 201.972V201.999Z" fill="black"/>
<path d="M121.865 210.107H117.459V208.941L118.639 208.398V202.135L117.459 201.593V200.427H121.865V201.593L120.686 202.135V208.398L121.865 208.941V210.107Z" fill="black"/>
<path d="M132.834 210.107L132.129 207.802H128.604L127.899 210.107H125.689L129.105 200.386H131.613L135.043 210.107H132.834ZM131.64 206.08L130.936 203.83C130.895 203.68 130.827 203.477 130.759 203.247C130.691 203.016 130.61 202.772 130.542 202.528C130.475 202.284 130.407 202.067 130.366 201.891C130.325 202.067 130.258 202.298 130.19 202.569C130.108 202.84 130.041 203.084 129.973 203.328C129.905 203.572 129.851 203.735 129.81 203.843L129.119 206.094H131.64V206.08Z" fill="black"/>
<path d="M139.653 210.107V200.427H141.7V208.412H145.632V210.107H139.653Z" fill="black"/>
<path d="M160.708 200.427C161.955 200.427 162.864 200.698 163.447 201.24C164.016 201.782 164.301 202.514 164.301 203.45C164.301 204.019 164.179 204.548 163.948 205.036C163.718 205.524 163.325 205.917 162.769 206.216C162.226 206.514 161.481 206.663 160.532 206.663H159.65V210.107H157.603V200.427H160.694H160.708ZM160.6 202.108H159.664V204.982H160.342C160.925 204.982 161.372 204.86 161.711 204.629C162.05 204.399 162.226 204.033 162.226 203.518C162.226 202.582 161.684 202.108 160.6 202.108Z" fill="black"/>
<path d="M174.767 210.107L174.062 207.802H170.537L169.832 210.107H167.622L171.039 200.386H173.547L176.977 210.107H174.767ZM173.574 206.08L172.869 203.83C172.829 203.68 172.761 203.477 172.693 203.247C172.625 203.016 172.544 202.772 172.476 202.528C172.408 202.284 172.34 202.067 172.3 201.891C172.259 202.067 172.191 202.298 172.124 202.569C172.042 202.84 171.974 203.084 171.907 203.328C171.839 203.572 171.785 203.735 171.744 203.843L171.053 206.094H173.574V206.08Z" fill="black"/>
<path d="M184.407 200.427C185.722 200.427 186.698 200.671 187.322 201.145C187.945 201.62 188.271 202.352 188.271 203.328C188.271 203.775 188.189 204.155 188.013 204.48C187.85 204.806 187.62 205.09 187.349 205.321C187.078 205.551 186.779 205.741 186.454 205.89L189.301 210.107H187.023L184.719 206.392H183.62V210.107H181.573V200.427H184.393H184.407ZM184.258 202.108H183.634V204.724H184.298C184.976 204.724 185.464 204.616 185.749 204.385C186.047 204.155 186.196 203.83 186.196 203.382C186.196 202.935 186.034 202.596 185.722 202.392C185.41 202.203 184.922 202.108 184.258 202.108Z" fill="black"/>
<path d="M197.652 210.107H195.605V202.135H192.975V200.427H200.283V202.135H197.652V210.107Z" fill="black"/>
<path d="M213.745 210.107H211.142L206.926 202.786H206.872C206.885 203.247 206.912 203.708 206.926 204.169C206.953 204.629 206.967 205.09 206.98 205.551V210.107H205.15V200.427H207.739L211.942 207.68H211.983C211.969 207.233 211.942 206.799 211.929 206.351C211.915 205.904 211.902 205.456 211.888 205.009V200.427H213.732V210.107H213.745Z" fill="black"/>
<path d="M225.147 210.107H219.575V200.427H225.147V202.108H221.622V204.236H224.903V205.917H221.622V208.412H225.147V210.107Z" fill="black"/>
<path d="M233.377 200.427C234.692 200.427 235.668 200.671 236.292 201.145C236.915 201.62 237.241 202.352 237.241 203.328C237.241 203.775 237.159 204.155 236.983 204.48C236.821 204.806 236.59 205.09 236.319 205.321C236.048 205.551 235.749 205.741 235.424 205.89L238.271 210.107H235.993L233.689 206.392H232.591V210.107H230.543V200.427H233.363H233.377ZM233.228 202.108H232.604V204.724H233.268C233.946 204.724 234.434 204.616 234.719 204.385C235.017 204.155 235.166 203.83 235.166 203.382C235.166 202.935 235.004 202.596 234.692 202.392C234.38 202.203 233.892 202.108 233.228 202.108Z" fill="black"/>
<path d="M113.5 106.784H187.918" stroke="black" stroke-width="1.23374" stroke-miterlimit="10"/>
<path d="M158.607 36.4337C158.607 37.6403 158.078 38.4945 156.451 38.4945H145.971C144.629 38.4945 143.856 38.1149 143.856 36.854C143.856 35.5931 144.385 34.9831 145.971 34.9831H158.607V36.4202V36.4337ZM204.784 31.4852V30.0888C204.784 28.8415 205.313 28.028 206.994 28.028H217.474C218.911 28.028 219.629 28.4618 219.629 29.804C219.629 30.9564 219.046 31.4852 217.569 31.4852H204.784ZM232.265 22.2118V44.3107H242.84V28.2178H251.49C254.418 28.2178 255.91 29.1262 255.91 31.9597V44.3107H266.485V31.092C266.485 24.8962 263.068 22.1982 253.415 22.1982H232.279L232.265 22.2118ZM206.221 22.2118C197.72 22.2118 194.304 25.0453 194.304 31.4445V35.8236C194.304 41.3551 197.72 44.3243 205.407 44.3243H227.805V38.508H207.522C205.502 38.508 204.838 37.9251 204.838 36.4473V35.5389H220.836C226.368 35.5389 229.486 33.8035 229.486 29.682V28.6788C229.486 24.9369 227.615 22.2389 218.247 22.2389H206.235L206.221 22.2118ZM172.246 44.3107H182.82V29.804C182.82 28.8414 183.2 28.2178 184.502 28.2178H192.718V22.2118H180.95C174.659 22.2118 172.246 24.5708 172.246 28.5025V44.3107ZM136.115 22.2118V28.028H155.963C157.929 28.028 158.607 28.7059 158.607 30.143V31.0107H142.649C135.965 31.0107 133.945 33.7493 133.945 37.2607V38.1284C133.945 42.982 137.836 44.3243 145.483 44.3243H157.21C165.521 44.3243 169.127 42.4533 169.127 35.9185V30.7802C169.127 25.2487 165.711 22.2253 157.983 22.2253H136.115V22.2118ZM72.8818 34.5085C72.8818 41.4771 76.4339 44.3107 85.6124 44.3107H105.745V38.3589H87.1444C84.9345 38.3589 83.4432 37.3556 83.4432 34.1832V32.258C83.4432 29.4244 84.8396 28.2178 87.0902 28.2178H105.732V22.2118H85.3142C76.2848 22.2118 72.8682 26.0079 72.8682 32.0682V34.5221L72.8818 34.5085ZM108.918 18.7003V44.3107H131.885V38.3047H119.493V18.7003H108.918ZM42.9466 33.0172V18.7003H36.9948C33.2936 18.7003 31.1786 20.1917 28.9687 21.9135L0.7146 44.3107H13.4452L32.1819 29.1262V44.3107H40.9807L59.1479 29.0313V44.3107H69.9127V18.7003H64.0558C60.8833 18.7003 58.6734 20.0019 56.4635 21.8186L42.9601 33.0172H42.9466Z" fill="black"/>
<path d="M291.919 0.112885C286.021 0.112885 277.697 1.87537 268.694 5.16987C261.183 7.92206 253.74 11.4199 245.701 16.4905C250.405 14.5653 259.692 12.3961 267.339 12.3961C277.67 12.3961 285.031 16.3549 274.172 30.2243C306.222 9.23715 305.341 0.0993347 291.919 0.0993347" fill="#FF8000"/>
<path d="M59.4869 77.1608H57.3176V66.7757H63.2694V68.5789H59.4869V71.2633H63.0118V73.0664H59.4869V77.1744V77.1608Z" fill="black"/>
<path d="M80.935 71.9547C80.935 73.0258 80.7587 73.9748 80.4062 74.7747C80.0537 75.5746 79.5115 76.1982 78.7794 76.6456C78.0472 77.093 77.1118 77.31 75.9865 77.31C74.8612 77.31 73.9257 77.093 73.1936 76.6456C72.4615 76.1982 71.9192 75.5746 71.5667 74.7747C71.2142 73.9748 71.038 73.0258 71.038 71.9547C71.038 70.8837 71.2142 69.9482 71.5667 69.1483C71.9192 68.3484 72.4615 67.7383 73.1936 67.2909C73.9257 66.8435 74.8612 66.6266 76 66.6266C77.1389 66.6266 78.0472 66.8435 78.7794 67.2909C79.5115 67.7383 80.0537 68.3484 80.4062 69.1483C80.7587 69.9482 80.935 70.8836 80.935 71.9683V71.9547ZM73.3563 71.9547C73.3563 73.0393 73.5597 73.8934 73.9799 74.5171C74.4002 75.1407 75.0646 75.4526 75.9865 75.4526C76.9084 75.4526 77.5998 75.1407 78.0066 74.5171C78.4133 73.8934 78.6167 73.0393 78.6167 71.9547C78.6167 70.8701 78.4133 70.016 78.0066 69.3923C77.5998 68.7687 76.9355 68.4569 76 68.4569C75.0645 68.4569 74.4002 68.7687 73.9799 69.3923C73.5597 70.016 73.3563 70.8701 73.3563 71.9547Z" fill="black"/>
<path d="M92.364 66.7757C93.774 66.7757 94.8315 67.0333 95.4958 67.5485C96.1737 68.0637 96.5126 68.85 96.5126 69.8939C96.5126 70.3684 96.4178 70.7888 96.2415 71.1412C96.0653 71.4937 95.8212 71.792 95.523 72.0496C95.2247 72.2937 94.9129 72.497 94.5739 72.6597L97.6244 77.1879H95.184L92.7165 73.202H91.537V77.1879H89.3407V66.8028H92.364V66.7757ZM92.2013 68.5789H91.537V71.3853H92.2556C92.9877 71.3853 93.5029 71.2633 93.8147 71.0192C94.1265 70.7752 94.2892 70.4227 94.2892 69.9482C94.2892 69.4737 94.113 69.1076 93.774 68.8907C93.4351 68.6873 92.9063 68.5789 92.2013 68.5789Z" fill="black"/>
<path d="M109.786 77.1608L107.277 69.0127H107.223C107.223 69.2025 107.25 69.5008 107.264 69.8804C107.277 70.2735 107.305 70.6802 107.318 71.1276C107.332 71.575 107.345 71.9682 107.345 72.3207V77.1472H105.379V66.7621H108.376L110.83 74.7069H110.87L113.473 66.7621H116.47V77.1472H114.422V72.2258C114.422 71.9004 114.422 71.5208 114.449 71.087C114.477 70.6531 114.477 70.26 114.49 69.8668C114.504 69.4872 114.517 69.1889 114.531 68.9991H114.477L111.792 77.1337H109.772L109.786 77.1608Z" fill="black"/>
<path d="M133.837 66.7757V73.5002C133.837 74.2188 133.674 74.8696 133.362 75.439C133.05 76.022 132.576 76.4694 131.925 76.8083C131.288 77.1472 130.488 77.3099 129.525 77.3099C128.143 77.3099 127.099 76.9574 126.38 76.2524C125.662 75.5474 125.309 74.6255 125.309 73.4596V66.7621H127.505V73.1206C127.505 73.9883 127.682 74.5848 128.034 74.9373C128.387 75.2763 128.902 75.4525 129.593 75.4525C130.285 75.4525 130.827 75.2627 131.152 74.8831C131.478 74.5035 131.64 73.907 131.64 73.1071V66.7621H133.837V66.7757Z" fill="black"/>
<path d="M142.649 77.1608V66.7757H144.846V75.3441H149.062V77.1608H142.649Z" fill="black"/>
<path d="M164.07 77.1608L163.311 74.6933H159.529L158.769 77.1608H156.397L160.057 66.7215H162.755L166.443 77.1608H164.07ZM162.796 72.836L162.037 70.4227C161.982 70.26 161.928 70.0431 161.847 69.7991C161.766 69.5415 161.698 69.2839 161.616 69.0263C161.535 68.7687 161.481 68.5382 161.427 68.3484C161.372 68.5382 161.318 68.7822 161.223 69.0669C161.142 69.3517 161.061 69.6228 160.993 69.8804C160.925 70.138 160.871 70.3142 160.83 70.4227L160.084 72.836H162.796Z" fill="black"/>
<path d="M188.61 77.1608H186.413V71.1548C186.413 70.9108 186.413 70.5854 186.427 70.1787C186.44 69.7719 186.454 69.4059 186.467 69.0941C186.413 69.1483 186.318 69.2567 186.156 69.4059C185.993 69.555 185.844 69.6906 185.708 69.7991L184.515 70.7616L183.458 69.433L186.806 66.7757H188.61V77.1608Z" fill="black"/>
<path d="M212.39 77.1608H210.193V68.606H207.373V66.7757H215.223V68.606H212.403V77.1608H212.39Z" fill="black"/>
<path d="M229.093 77.1608H223.114V66.7757H229.093V68.5789H225.31V70.8701H228.835V72.6733H225.31V75.3441H229.093V77.1608Z" fill="black"/>
<path d="M244.291 77.1608L243.531 74.6933H239.749L238.99 77.1608H236.617L240.278 66.7215H242.976L246.663 77.1608H244.291ZM243.016 72.836L242.257 70.4227C242.203 70.26 242.149 70.0431 242.067 69.7991C241.986 69.5415 241.918 69.2839 241.837 69.0263C241.755 68.7687 241.701 68.5382 241.647 68.3484C241.593 68.5382 241.538 68.7822 241.444 69.0669C241.362 69.3517 241.281 69.6228 241.213 69.8804C241.145 70.138 241.091 70.3142 241.05 70.4227L240.305 72.836H243.016Z" fill="black"/>
<path d="M258.824 77.1608L256.316 69.0127H256.262C256.262 69.2025 256.289 69.5008 256.303 69.8804C256.316 70.2735 256.343 70.6802 256.357 71.1276C256.37 71.575 256.384 71.9682 256.384 72.3207V77.1472H254.418V66.7621H257.414L259.868 74.7069H259.909L262.512 66.7621H265.508V77.1472H263.461V72.2258C263.461 71.9004 263.461 71.5208 263.488 71.087C263.515 70.6531 263.515 70.26 263.529 69.8668C263.542 69.4872 263.556 69.1889 263.57 68.9991H263.515L260.831 77.1337H258.811L258.824 77.1608Z" fill="black"/>
<path d="M16.6854 127.012L0.70105 137.045L16.6854 147.077L32.6699 137.045L48.6543 147.077L64.6388 137.045L48.6543 127.012L32.6699 137.045L16.6854 127.012Z" fill="#0061FE"/>
<path d="M16.6854 167.17L0.70105 157.137L16.6854 147.091L32.6699 157.137L16.6854 167.17Z" fill="#0061FE"/>
<path d="M32.6835 157.124L48.6679 147.077L64.6523 157.124L48.6679 167.156L32.6835 157.124Z" fill="#0061FE"/>
<path d="M32.6834 180.551L16.699 170.519L32.6834 160.486L48.6679 170.519L32.6834 180.551Z" fill="#0061FE"/>
<path d="M75.9865 136.909H88.7035C96.8381 136.909 103.481 141.627 103.481 152.338V154.629C103.481 165.38 97.2177 170.234 88.8933 170.234H75.9865V136.909ZM83.0906 142.942V164.119H88.5543C93.1368 164.119 96.2686 161.082 96.2686 154.399V152.663C96.2686 145.979 93.0419 142.942 88.3239 142.942H83.0906ZM107.264 143.268H112.917L113.799 149.531C114.87 145.234 117.635 143.037 122.638 143.037H124.374V150.182H121.486C115.683 150.182 114.287 152.189 114.287 157.896V170.234H107.277V143.268H107.264ZM125.865 157.327V156.581C125.865 147.511 131.668 142.658 139.517 142.658C147.367 142.658 153.116 147.606 153.116 156.581V157.327C153.116 166.207 147.652 170.925 139.517 170.925C130.827 170.925 125.865 166.207 125.865 157.327ZM146.012 157.232V156.581C146.012 151.538 143.49 148.596 139.517 148.596C135.545 148.596 132.969 151.348 132.969 156.581V157.232C132.969 162.099 135.45 164.811 139.463 164.811C143.476 164.811 146.012 162.154 146.012 157.232ZM156.803 143.268H162.701L163.406 148.406C164.857 144.949 167.853 142.658 172.286 142.658C179.16 142.658 183.647 147.606 183.647 156.676V157.422C183.647 166.302 178.645 170.925 172.286 170.925C167.988 170.925 165.128 169.014 163.677 165.882V179.48H156.803V143.254V143.268ZM176.53 157.286V156.676C176.53 151.307 173.778 148.637 170.076 148.637C166.158 148.637 163.528 151.633 163.528 156.622V157.137C163.528 161.909 166.05 164.892 169.927 164.892C173.805 164.892 176.516 162.235 176.516 157.273L176.53 157.286ZM193.965 165.326L193.409 170.234H187.335V134.238H194.209V148.067C195.714 144.556 198.696 142.644 202.953 142.644C209.353 142.698 214.125 147.132 214.125 156.107V156.907C214.125 165.882 209.637 170.925 202.764 170.925C198.317 170.925 195.429 168.783 193.978 165.326H193.965ZM207.061 156.907V156.256C207.061 151.307 204.35 148.596 200.608 148.596C196.866 148.596 194.06 151.728 194.06 156.351V156.907C194.06 161.95 196.622 164.851 200.513 164.851C204.404 164.851 207.061 162.235 207.061 156.907ZM217.257 157.327V156.581C217.257 147.511 223.005 142.658 230.855 142.658C238.705 142.658 244.508 147.606 244.508 156.581V157.327C244.508 166.207 238.99 170.925 230.855 170.925C222.151 170.925 217.257 166.207 217.257 157.327ZM237.403 157.232V156.581C237.403 151.538 234.882 148.596 230.909 148.596C226.937 148.596 224.361 151.348 224.361 156.581V157.232C224.361 162.099 226.842 164.811 230.855 164.811C234.868 164.811 237.403 162.154 237.403 157.232ZM253.673 156.256L244.236 143.254H252.317L257.78 151.335L263.298 143.254H271.338L261.753 156.202L271.853 170.22H263.909L257.686 161.286L251.652 170.22H243.423L253.673 156.242V156.256Z" fill="#1E1919"/>
</svg>
